# Counter-UAS Air-to-Air Simulation
# Lightweight low-poly mountain terrain

mtllib mountain.mtl

o mountain

# ==========================================
# Vertices
# ==========================================

# Outer ground ring
v -30.0 -25.0  0.0
v   0.0 -30.0  0.0
v  30.0 -25.0  0.0
v  35.0   0.0  0.0
v  28.0  25.0  0.0
v   0.0  30.0  0.0
v -30.0  25.0  0.0
v -35.0   0.0  0.0

# Intermediate ridge
v -18.0 -15.0  7.0
v   0.0 -18.0 10.0
v  18.0 -14.0  6.0
v  20.0   2.0  9.0
v  15.0  17.0  7.0
v  -2.0  19.0 11.0
v -17.0  15.0  8.0
v -20.0   0.0  6.0

# Inner ridge / summit region
v -9.0 -8.0 14.0
v  4.0 -9.0 18.0
v 11.0  1.0 15.0
v  6.0 10.0 19.0
v -7.0 11.0 16.0
v -12.0 1.0 13.0

# Main summit
v 0.0 1.0 24.0

# ==========================================
# Material Assignment
# ==========================================

usemtl MountainMaterial

# ==========================================
# Faces - outer slopes
# ==========================================

f 1 2 10
f 1 10 9

f 2 3 11
f 2 11 10

f 3 4 12
f 3 12 11

f 4 5 13
f 4 13 12

f 5 6 14
f 5 14 13

f 6 7 15
f 6 15 14

f 7 8 16
f 7 16 15

f 8 1 9
f 8 9 16

# ==========================================
# Faces - intermediate slopes
# ==========================================

f 9 10 18
f 9 18 17

f 10 11 19
f 10 19 18

f 11 12 19

f 12 13 20
f 12 20 19

f 13 14 20

f 14 15 21
f 14 21 20

f 15 16 22
f 15 22 21

f 16 9 17
f 16 17 22

# ==========================================
# Summit faces
# ==========================================

f 17 18 23
f 18 19 23
f 19 20 23
f 20 21 23
f 21 22 23
f 22 17 23